<?xml version="1.0" standalone="no"?>
<!DOCTYPE svg PUBLIC "-//W3C//DTD SVG 20010904//EN"
 "http://www.w3.org/TR/2001/REC-SVG-20010904/DTD/svg10.dtd">
<svg version="1.0" xmlns="http://www.w3.org/2000/svg"
 width="452.000000pt" height="274.000000pt" viewBox="0 0 452.000000 274.000000"
 preserveAspectRatio="xMidYMid meet">

<g transform="translate(0.000000,274.000000) scale(0.100000,-0.100000)"
fill="#000000" stroke="none">
<path d="M3000 2346 c0 -8 5 -18 10 -21 6 -3 10 1 10 9 0 8 -4 18 -10 21 -5 3
-10 -1 -10 -9z"/>
<path d="M1353 2309 c-18 -18 -17 -22 17 -76 17 -26 30 -55 30 -65 0 -10 5
-18 10 -18 14 0 12 16 -6 58 -29 67 -33 77 -36 95 -2 15 -5 16 -15 6z"/>
<path d="M1903 2242 c-34 -69 -41 -102 -23 -102 6 0 10 9 10 20 0 11 14 42 30
68 29 47 39 83 23 81 -5 0 -23 -30 -40 -67z"/>
<path d="M1401 2124 c0 -11 3 -14 6 -6 3 7 2 16 -1 19 -3 4 -6 -2 -5 -13z"/>
<path d="M1181 1924 c0 -11 3 -14 6 -6 3 7 2 16 -1 19 -3 4 -6 -2 -5 -13z"/>
<path d="M3582 1895 c0 -16 2 -22 5 -12 2 9 2 23 0 30 -3 6 -5 -1 -5 -18z"/>
<path d="M1321 1884 c0 -11 3 -14 6 -6 3 7 2 16 -1 19 -3 4 -6 -2 -5 -13z"/>
<path d="M2333 1835 c0 -33 2 -45 4 -27 2 18 2 45 0 60 -2 15 -4 0 -4 -33z"/>
<path d="M961 1775 c-1 -65 0 -68 16 -52 14 13 15 21 5 39 -6 13 -13 37 -15
53 -2 17 -5 -1 -6 -40z"/>
<path d="M1300 1827 c0 -9 -4 -17 -10 -17 -5 0 -10 -12 -9 -27 0 -16 3 -21 6
-13 2 8 9 25 15 37 6 13 8 26 5 30 -4 3 -7 -1 -7 -10z"/>
<path d="M3562 1805 c-1 -23 -7 -46 -14 -53 -9 -9 -9 -15 0 -24 19 -19 23 -5
19 58 -2 43 -4 48 -5 19z"/>
<path d="M1242 1805 c0 -16 2 -22 5 -12 2 9 2 23 0 30 -3 6 -5 -1 -5 -18z"/>
<path d="M1002 1800 c0 -14 2 -19 5 -12 2 6 2 18 0 25 -3 6 -5 1 -5 -13z"/>
<path d="M2631 1794 c0 -11 3 -14 6 -6 3 7 2 16 -1 19 -3 4 -6 -2 -5 -13z"/>
<path d="M3427 1749 c-3 -13 -1 -19 6 -16 15 5 22 37 9 37 -5 0 -12 -9 -15
-21z"/>
<path d="M1182 1740 c0 -14 2 -19 5 -12 2 6 2 18 0 25 -3 6 -5 1 -5 -13z"/>
<path d="M1222 1730 c0 -19 2 -27 5 -17 2 9 2 25 0 35 -3 9 -5 1 -5 -18z"/>
<path d="M1090 1740 c-8 -5 -12 -11 -9 -14 2 -3 11 -1 19 4 8 5 12 11 9 14 -2
3 -11 1 -19 -4z"/>
<path d="M3290 1720 c0 -8 5 -22 10 -30 9 -13 10 -13 10 0 0 8 -5 22 -10 30
-9 13 -10 13 -10 0z"/>
<path d="M700 1659 c0 -11 5 -17 10 -14 6 3 10 13 10 21 0 8 -4 14 -10 14 -5
0 -10 -9 -10 -21z"/>
<path d="M1081 1638 c0 -20 -5 -40 -11 -43 -15 -9 -12 -25 4 -19 20 8 23 23
15 64 l-6 35 -2 -37z"/>
<path d="M3812 1656 c7 -8 15 -12 17 -11 5 6 -10 25 -20 25 -5 0 -4 -6 3 -14z"/>
<path d="M3011 1644 c0 -11 3 -14 6 -6 3 7 2 16 -1 19 -3 4 -6 -2 -5 -13z"/>
<path d="M830 1626 c0 -8 5 -18 10 -21 6 -3 10 3 10 14 0 12 -4 21 -10 21 -5
0 -10 -6 -10 -14z"/>
<path d="M1218 1610 c-3 -19 -12 -53 -18 -75 -7 -22 -14 -58 -16 -80 -1 -22
-1 -31 2 -20 3 11 10 24 15 30 5 5 9 21 9 35 0 14 5 31 11 37 5 5 9 32 7 59
-3 47 -3 48 -10 14z"/>
<path d="M3441 1628 c-1 -9 -6 -18 -12 -20 -5 -2 1 -14 16 -28 l25 -24 -9 30
c-20 61 -19 60 -20 42z"/>
<path d="M3300 1609 c0 -11 4 -18 10 -14 5 3 7 12 3 20 -7 21 -13 19 -13 -6z"/>
<path d="M3682 1600 c0 -14 2 -19 5 -12 2 6 2 18 0 25 -3 6 -5 1 -5 -13z"/>
<path d="M3801 1554 c0 -11 3 -14 6 -6 3 7 2 16 -1 19 -3 4 -6 -2 -5 -13z"/>
<path d="M3762 1530 c0 -14 2 -19 5 -12 2 6 2 18 0 25 -3 6 -5 1 -5 -13z"/>
<path d="M962 1467 c-2 -73 -1 -77 14 -62 13 13 14 21 6 38 -6 12 -13 40 -15
62 -2 22 -4 5 -5 -38z"/>
<path d="M3821 1494 c0 -11 3 -14 6 -6 3 7 2 16 -1 19 -3 4 -6 -2 -5 -13z"/>
<path d="M1001 1464 c0 -11 3 -14 6 -6 3 7 2 16 -1 19 -3 4 -6 -2 -5 -13z"/>
<path d="M2111 1454 c0 -11 3 -14 6 -6 3 7 2 16 -1 19 -3 4 -6 -2 -5 -13z"/>
<path d="M3521 1454 c0 -11 3 -14 6 -6 3 7 2 16 -1 19 -3 4 -6 -2 -5 -13z"/>
<path d="M3540 1431 c0 -5 7 -22 15 -37 l15 -29 0 38 c0 26 -4 37 -15 37 -8 0
-15 -4 -15 -9z"/>
<path d="M1162 1408 c-1 -10 -6 -18 -12 -18 -6 0 -9 -25 -9 -57 1 -32 3 -49 6
-38 2 11 9 29 14 41 6 11 9 36 6 55 -2 19 -5 26 -5 17z"/>
<path d="M1103 1375 c0 -22 2 -30 4 -17 2 12 2 30 0 40 -3 9 -5 -1 -4 -23z"/>
<path d="M3741 1394 c0 -11 3 -14 6 -6 3 7 2 16 -1 19 -3 4 -6 -2 -5 -13z"/>
<path d="M937 1330 c3 -11 7 -20 9 -20 2 0 4 9 4 20 0 11 -4 20 -9 20 -5 0 -7
-9 -4 -20z"/>
<path d="M3365 1330 c-3 -5 -1 -10 4 -10 6 0 11 5 11 10 0 6 -2 10 -4 10 -3 0
-8 -4 -11 -10z"/>
<path d="M3582 1310 c0 -19 2 -27 5 -17 2 9 2 25 0 35 -3 9 -5 1 -5 -18z"/>
<path d="M3977 1316 c-4 -10 -5 -21 -2 -24 9 -9 17 6 13 25 -3 17 -4 17 -11
-1z"/>
<path d="M552 1280 c0 -14 2 -19 5 -12 2 6 2 18 0 25 -3 6 -5 1 -5 -13z"/>
<path d="M3721 1274 c0 -11 3 -14 6 -6 3 7 2 16 -1 19 -3 4 -6 -2 -5 -13z"/>
<path d="M3970 1273 c0 -4 5 -15 10 -23 8 -13 10 -13 10 2 0 9 -4 20 -10 23
-5 3 -10 3 -10 -2z"/>
<path d="M1120 1237 c0 -22 -20 -32 -31 -16 -6 10 -9 3 -9 -21 1 -31 2 -33 14
-17 7 9 16 17 20 17 4 0 14 6 21 14 12 12 12 16 0 26 -12 10 -15 9 -15 -3z"/>
<path d="M3508 1223 c7 -3 16 -2 19 1 4 3 -2 6 -13 5 -11 0 -14 -3 -6 -6z"/>
<path d="M3430 1204 c0 -8 5 -12 10 -9 6 4 8 11 5 16 -9 14 -15 11 -15 -7z"/>
<path d="M922 1190 c0 -14 2 -19 5 -12 2 6 2 18 0 25 -3 6 -5 1 -5 -13z"/>
<path d="M3601 1184 c0 -11 3 -14 6 -6 3 7 2 16 -1 19 -3 4 -6 -2 -5 -13z"/>
<path d="M2031 1114 c0 -11 3 -14 6 -6 3 7 2 16 -1 19 -3 4 -6 -2 -5 -13z"/>
<path d="M3602 1110 c0 -14 2 -19 5 -12 2 6 2 18 0 25 -3 6 -5 1 -5 -13z"/>
<path d="M3860 1104 c0 -8 5 -12 10 -9 6 4 8 11 5 16 -9 14 -15 11 -15 -7z"/>
<path d="M922 1085 c0 -16 2 -22 5 -12 2 9 2 23 0 30 -3 6 -5 -1 -5 -18z"/>
<path d="M1033 1072 c-6 -20 -8 -41 -3 -47 4 -5 10 -21 13 -35 4 -22 4 -22 6
6 0 16 5 34 9 40 5 5 3 23 -3 41 l-11 32 -11 -37z"/>
<path d="M3478 1074 c-4 -6 1 -19 12 -29 12 -10 20 -13 20 -7 0 7 -4 12 -9 12
-5 0 -11 8 -13 18 -2 11 -6 13 -10 6z"/>
<path d="M3602 1050 c0 -19 2 -27 5 -17 2 9 2 25 0 35 -3 9 -5 1 -5 -18z"/>
<path d="M921 1024 c0 -11 3 -14 6 -6 3 7 2 16 -1 19 -3 4 -6 -2 -5 -13z"/>
<path d="M2954 945 c0 -49 1 -71 3 -48 2 23 2 64 0 90 -2 26 -3 8 -3 -42z"/>
<path d="M2012 990 c0 -14 2 -19 5 -12 2 6 2 18 0 25 -3 6 -5 1 -5 -13z"/>
<path d="M1022 935 c0 -16 2 -22 5 -12 2 9 2 23 0 30 -3 6 -5 -1 -5 -18z"/>
<path d="M3570 949 c-11 -8 -12 -12 -2 -16 6 -2 12 -18 12 -34 0 -16 5 -29 10
-29 6 0 10 -12 10 -27 1 -25 2 -26 11 -10 8 13 7 24 -4 41 -9 13 -17 37 -19
54 -2 26 -6 30 -18 21z"/>
<path d="M940 930 c0 -22 -19 -60 -35 -72 -6 -5 -4 -12 5 -18 11 -7 17 -4 24
13 15 37 24 97 15 97 -5 0 -9 -9 -9 -20z"/>
<path d="M2011 914 c0 -11 3 -14 6 -6 3 7 2 16 -1 19 -3 4 -6 -2 -5 -13z"/>
<path d="M3821 904 c0 -11 3 -14 6 -6 3 7 2 16 -1 19 -3 4 -6 -2 -5 -13z"/>
<path d="M3481 894 c0 -11 3 -14 6 -6 3 7 2 16 -1 19 -3 4 -6 -2 -5 -13z"/>
<path d="M3661 854 c0 -11 3 -14 6 -6 3 7 2 16 -1 19 -3 4 -6 -2 -5 -13z"/>
<path d="M1002 830 c0 -14 2 -19 5 -12 2 6 2 18 0 25 -3 6 -5 1 -5 -13z"/>
<path d="M3505 795 c14 -134 16 -199 7 -219 -65 -142 -87 -179 -139 -233 -20
-22 -26 -33 -16 -33 18 0 93 76 93 94 0 7 12 26 27 42 31 33 40 71 52 204 7
81 5 101 -11 145 l-19 50 6 -50z"/>
<path d="M960 796 c0 -9 4 -16 9 -16 11 0 21 -55 27 -150 3 -41 10 -85 16 -97
6 -12 8 -31 5 -43 -3 -11 0 -26 6 -33 19 -20 37 -55 37 -71 0 -8 8 -17 18 -20
10 -3 35 -22 56 -42 21 -19 40 -33 42 -31 3 3 -14 23 -38 45 -43 41 -100 140
-114 197 -3 17 -8 73 -11 125 -4 102 -10 146 -20 136 -3 -3 -12 -1 -20 5 -10
9 -13 8 -13 -5z"/>
<path d="M3641 734 c0 -11 3 -14 6 -6 3 7 2 16 -1 19 -3 4 -6 -2 -5 -13z"/>
<path d="M2948 610 c-4 -14 -8 -34 -8 -45 1 -19 1 -19 11 -2 6 10 9 30 7 45
l-3 27 -7 -25z"/>
<path d="M2011 600 c0 -14 4 -32 9 -40 8 -12 10 -12 9 5 0 11 -4 29 -9 40 -8
18 -9 18 -9 -5z"/>
<path d="M2031 493 c-1 -23 4 -45 9 -48 6 -3 10 -22 10 -41 0 -19 5 -34 10
-34 13 0 13 1 -9 90 -17 69 -19 72 -20 33z"/>
<path d="M2927 486 c-5 -15 -6 -31 -3 -34 8 -8 18 25 14 45 -3 13 -6 10 -11
-11z"/>
<path d="M787 492 c-9 -2 -15 -8 -12 -13 8 -12 42 -12 49 0 7 11 -13 19 -37
13z"/>
<path d="M3720 490 c0 -5 5 -10 11 -10 5 0 7 5 4 10 -3 6 -8 10 -11 10 -2 0
-4 -4 -4 -10z"/>
<path d="M3768 483 c7 -3 16 -2 19 1 4 3 -2 6 -13 5 -11 0 -14 -3 -6 -6z"/>
<path d="M2899 383 c-9 -26 -19 -56 -23 -65 -5 -11 -1 -20 14 -28 19 -10 20
-9 14 15 -4 15 -1 44 6 65 7 21 11 43 8 50 -2 6 -11 -10 -19 -37z"/>
<path d="M2070 323 c0 -36 2 -41 20 -36 25 7 25 11 0 48 l-20 30 0 -42z"/>
<path d="M2830 290 c0 -5 -7 -10 -16 -10 -8 0 -22 -7 -30 -15 -24 -24 3 -18
44 10 24 16 31 25 19 25 -9 0 -17 -4 -17 -10z"/>
<path d="M2130 286 c0 -3 17 -13 38 -22 20 -10 40 -19 45 -21 4 -2 7 -2 7 1 0
3 -17 13 -37 22 -21 10 -41 19 -45 21 -5 2 -8 2 -8 -1z"/>
<path d="M3023 253 c9 -2 25 -2 35 0 9 3 1 5 -18 5 -19 0 -27 -2 -17 -5z"/>
<path d="M2250 236 c0 -2 7 -7 16 -10 8 -3 12 -2 9 4 -6 10 -25 14 -25 6z"/>
<path d="M2728 233 c7 -3 16 -2 19 1 4 3 -2 6 -13 5 -11 0 -14 -3 -6 -6z"/>
<path d="M2623 213 c9 -2 23 -2 30 0 6 3 -1 5 -18 5 -16 0 -22 -2 -12 -5z"/>
</g>
</svg>
